<svg width="64" height="64" viewBox="0 0 64 64" fill="none" xmlns="http://www.w3.org/2000/svg">
<rect width="64" height="64" fill="white"/>
<path d="M7.00012 44.9533V18.3643H14.904C16.7009 18.3643 18.2549 18.7042 19.5662 19.3841C20.9017 20.064 21.9337 21.0232 22.6621 22.2616C23.3906 23.4999 23.7548 24.969 23.7548 26.6688V36.6123C23.7548 38.2878 23.3906 39.7569 22.6621 41.0195C21.9337 42.2579 20.9017 43.2292 19.5662 43.9334C18.2549 44.6133 16.7009 44.9533 14.904 44.9533H7.00012ZM11.553 40.7646H14.904C16.2152 40.7646 17.2593 40.4003 18.0364 39.6719C18.8134 38.9191 19.2019 37.8993 19.2019 36.6123V26.6688C19.2019 25.4061 18.8134 24.4105 18.0364 23.6821C17.2593 22.9293 16.2152 22.5529 14.904 22.5529H11.553V40.7646Z" fill="black"/>
<path d="M32.0087 45.3175C30.1875 45.3175 28.6092 45.014 27.2737 44.4069C25.9381 43.7999 24.9061 42.9378 24.1777 41.8209C23.4735 40.6796 23.1093 39.3441 23.085 37.8143H27.6379C27.6379 38.907 28.0264 39.769 28.8034 40.4003C29.6047 41.0074 30.6853 41.3109 32.0451 41.3109C33.3563 41.3109 34.3762 41.0074 35.1047 40.4003C35.8574 39.7933 36.2338 38.9556 36.2338 37.8871C36.2338 36.9887 35.9667 36.2117 35.4325 35.556C34.9225 34.8761 34.1819 34.4148 33.2107 34.172L30.1511 33.3342C28.0628 32.8 26.4481 31.8409 25.3068 30.4568C24.1898 29.0727 23.6313 27.3972 23.6313 25.4304C23.6313 23.9249 23.9713 22.6136 24.6512 21.4967C25.3311 20.3797 26.2902 19.5177 27.5286 18.9106C28.7913 18.3036 30.2725 18 31.9723 18C34.5462 18 36.5859 18.6678 38.0914 20.0033C39.5969 21.3145 40.3618 23.0871 40.386 25.3211H35.8331C35.8331 24.277 35.4932 23.4635 34.8133 22.8807C34.1334 22.2737 33.1742 21.9702 31.9358 21.9702C30.746 21.9702 29.8233 22.2494 29.1677 22.8079C28.5121 23.3664 28.1842 24.1556 28.1842 25.1754C28.1842 26.0981 28.4271 26.8873 28.9127 27.5429C29.4226 28.1743 30.1511 28.6235 31.0981 28.8906L34.2669 29.7647C36.3795 30.299 37.9942 31.2581 39.1112 32.6422C40.2282 34.002 40.7867 35.6896 40.7867 37.705C40.7867 39.2105 40.4225 40.546 39.694 41.7116C38.9655 42.8528 37.9457 43.7391 36.6344 44.3705C35.3232 45.0018 33.7813 45.3175 32.0087 45.3175Z" fill="black"/>
<path d="M48.822 45.3175C47.1223 45.3175 45.6289 45.0018 44.3419 44.3705C43.0793 43.7149 42.0958 42.8043 41.3917 41.6387C40.7118 40.4489 40.3718 39.0527 40.3718 37.4501V25.8675C40.3718 24.2406 40.7118 22.8443 41.3917 21.6788C42.0958 20.5132 43.0793 19.6148 44.3419 18.9835C45.6289 18.3278 47.1223 18 48.822 18C50.546 18 52.0273 18.3278 53.2656 18.9835C54.5283 19.6148 55.5118 20.5132 56.2159 21.6788C56.9201 22.8443 57.2722 24.2406 57.2722 25.8675H52.6829C52.6829 24.6048 52.3429 23.6456 51.663 22.99C51.0074 22.3344 50.0604 22.0066 48.822 22.0066C47.5836 22.0066 46.6245 22.3344 45.9446 22.99C45.2647 23.6456 44.9247 24.5926 44.9247 25.831V37.4501C44.9247 38.6885 45.2647 39.6476 45.9446 40.3275C46.6245 41.0074 47.5836 41.3473 48.822 41.3473C50.0604 41.3473 51.0074 41.0074 51.663 40.3275C52.3429 39.6476 52.6829 38.6885 52.6829 37.4501V34.7547H48.1664V30.821H57.2722V37.4501C57.2722 39.0527 56.9201 40.4489 56.2159 41.6387C55.5118 42.8043 54.5283 43.7149 53.2656 44.3705C52.0273 45.0018 50.546 45.3175 48.822 45.3175Z" fill="black"/>
</svg>
